<svg width="430" height="932" viewBox="0 0 430 932" fill="none" xmlns="http://www.w3.org/2000/svg">
  <rect width="430" height="932" rx="34" fill="#F7F9FC"/>
  <rect x="0" y="0" width="430" height="932" rx="34" fill="white"/>

  <rect x="0" y="0" width="430" height="64" fill="white"/>
  <text x="24" y="39" font-family="-apple-system,BlinkMacSystemFont,'Noto Sans JP',sans-serif" font-size="18" font-weight="800" fill="#101828">Leap</text>
  <text x="190" y="39" font-family="-apple-system,BlinkMacSystemFont,'Noto Sans JP',sans-serif" font-size="17" font-weight="800" fill="#101828">マイページ</text>
  <circle cx="356" cy="32" r="16" fill="#F3F6FA"/>
  <path d="M350 32h12M356 26v12" stroke="#111827" stroke-width="2" stroke-linecap="round"/>
  <circle cx="396" cy="32" r="16" fill="#F3F6FA"/>
  <circle cx="390" cy="32" r="2" fill="#111827"/>
  <circle cx="396" cy="32" r="2" fill="#111827"/>
  <circle cx="402" cy="32" r="2" fill="#111827"/>

  <rect y="64" width="430" height="118" fill="#DCEBFF"/>
  <path d="M0 160C80 120 118 128 190 154C272 184 336 108 430 126V182H0V160Z" fill="#CFE1FF"/>
  <path d="M0 94C64 112 108 102 158 84C216 64 296 76 430 104V64H0V94Z" fill="#EEF6FF"/>
  <rect x="20" y="142" width="96" height="96" rx="48" fill="white"/>
  <rect x="26" y="148" width="84" height="84" rx="42" fill="url(#avatar)"/>
  <circle cx="104" cy="216" r="15" fill="#2563EB" stroke="white" stroke-width="4"/>
  <path d="M98 216l4 4 8-10" stroke="white" stroke-width="2.5" stroke-linecap="round" stroke-linejoin="round"/>

  <text x="20" y="274" font-family="-apple-system,BlinkMacSystemFont,'Noto Sans JP',sans-serif" font-size="25" font-weight="900" fill="#101828">NextFlow株式会社</text>
  <text x="20" y="298" font-family="-apple-system,BlinkMacSystemFont,'Noto Sans JP',sans-serif" font-size="13" font-weight="700" fill="#667085">@nextflow ・ 代表 山田 太郎</text>
  <text x="20" y="328" font-family="-apple-system,BlinkMacSystemFont,'Noto Sans JP',sans-serif" font-size="15" font-weight="700" fill="#344054">現場の業務をAIで軽くするSaaS</text>

  <g font-family="-apple-system,BlinkMacSystemFont,'Noto Sans JP',sans-serif" font-size="11" font-weight="800">
    <rect x="20" y="344" width="54" height="28" rx="14" fill="#EFF6FF"/><text x="35" y="362" fill="#2563EB">SaaS</text>
    <rect x="82" y="344" width="42" height="28" rx="14" fill="#EFF6FF"/><text x="98" y="362" fill="#2563EB">AI</text>
    <rect x="132" y="344" width="52" height="28" rx="14" fill="#EFF6FF"/><text x="146" y="362" fill="#2563EB">BtoB</text>
    <rect x="192" y="344" width="62" height="28" rx="14" fill="#F2F4F7"/><text x="208" y="362" fill="#475467">東京都</text>
    <rect x="262" y="344" width="58" height="28" rx="14" fill="#ECFDF3"/><text x="276" y="362" fill="#039855">シード</text>
  </g>

  <g font-family="-apple-system,BlinkMacSystemFont,'Noto Sans JP',sans-serif">
    <text x="26" y="404" font-size="18" font-weight="900" fill="#101828">128</text><text x="21" y="424" font-size="11" font-weight="700" fill="#667085">フォロー</text>
    <text x="111" y="404" font-size="18" font-weight="900" fill="#101828">864</text><text x="103" y="424" font-size="11" font-weight="700" fill="#667085">フォロワー</text>
    <text x="208" y="404" font-size="18" font-weight="900" fill="#101828">42</text><text x="202" y="424" font-size="11" font-weight="700" fill="#667085">投稿</text>
    <text x="300" y="404" font-size="18" font-weight="900" fill="#101828">12</text><text x="291" y="424" font-size="11" font-weight="700" fill="#667085">ブログ</text>
  </g>

  <rect x="20" y="444" width="178" height="42" rx="12" fill="#101828"/>
  <text x="65" y="471" font-family="-apple-system,BlinkMacSystemFont,'Noto Sans JP',sans-serif" font-size="14" font-weight="900" fill="white">プロフィールを編集</text>
  <rect x="212" y="444" width="84" height="42" rx="12" fill="#F3F6FA"/>
  <text x="230" y="471" font-family="-apple-system,BlinkMacSystemFont,'Noto Sans JP',sans-serif" font-size="13" font-weight="900" fill="#101828">ブログ</text>
  <rect x="308" y="444" width="82" height="42" rx="12" fill="#2563EB"/>
  <text x="326" y="471" font-family="-apple-system,BlinkMacSystemFont,'Noto Sans JP',sans-serif" font-size="13" font-weight="900" fill="white">投稿</text>

  <rect x="0" y="504" width="430" height="48" fill="white"/>
  <g font-family="-apple-system,BlinkMacSystemFont,'Noto Sans JP',sans-serif" font-size="13" font-weight="900">
    <text x="35" y="533" fill="#2563EB">ホーム</text>
    <text x="125" y="533" fill="#667085">ストーリー</text>
    <text x="235" y="533" fill="#667085">実績</text>
    <text x="324" y="533" fill="#667085">ブログ</text>
  </g>
  <rect x="20" y="549" width="72" height="3" rx="1.5" fill="#2563EB"/>

  <rect x="20" y="574" width="390" height="104" rx="18" fill="white" stroke="#EAECF0"/>
  <text x="38" y="606" font-family="-apple-system,BlinkMacSystemFont,'Noto Sans JP',sans-serif" font-size="16" font-weight="900" fill="#101828">私たちが実現したいこと</text>
  <text x="38" y="634" font-family="-apple-system,BlinkMacSystemFont,'Noto Sans JP',sans-serif" font-size="13" font-weight="650" fill="#475467">現場の繰り返し業務をAIで自動化し、</text>
  <text x="38" y="657" font-family="-apple-system,BlinkMacSystemFont,'Noto Sans JP',sans-serif" font-size="13" font-weight="650" fill="#475467">人が判断と創造に集中できる社会をつくります。</text>

  <g font-family="-apple-system,BlinkMacSystemFont,'Noto Sans JP',sans-serif">
    <rect x="20" y="696" width="88" height="74" rx="16" fill="#F8FAFC" stroke="#EAECF0"/>
    <text x="35" y="725" font-size="11" font-weight="800" fill="#667085">月次売上</text>
    <text x="35" y="750" font-size="17" font-weight="900" fill="#101828">320万円</text>
    <rect x="116" y="696" width="88" height="74" rx="16" fill="#F8FAFC" stroke="#EAECF0"/>
    <text x="131" y="725" font-size="11" font-weight="800" fill="#667085">導入社数</text>
    <text x="131" y="750" font-size="17" font-weight="900" fill="#101828">48社</text>
    <rect x="212" y="696" width="88" height="74" rx="16" fill="#F8FAFC" stroke="#EAECF0"/>
    <text x="227" y="725" font-size="11" font-weight="800" fill="#667085">成長率</text>
    <text x="227" y="750" font-size="17" font-weight="900" fill="#039855">+25%</text>
    <rect x="308" y="696" width="88" height="74" rx="16" fill="#F8FAFC" stroke="#EAECF0"/>
    <text x="323" y="725" font-size="11" font-weight="800" fill="#667085">チーム</text>
    <text x="323" y="750" font-size="17" font-weight="900" fill="#101828">8人</text>
  </g>

  <text x="20" y="808" font-family="-apple-system,BlinkMacSystemFont,'Noto Sans JP',sans-serif" font-size="16" font-weight="900" fill="#101828">会社のストーリー</text>
  <rect x="20" y="824" width="390" height="70" rx="16" fill="white" stroke="#EAECF0"/>
  <rect x="34" y="838" width="76" height="42" rx="10" fill="#DBEAFE"/>
  <path d="M43 870L63 850L76 862L85 854L101 870" stroke="#2563EB" stroke-width="3" stroke-linecap="round" stroke-linejoin="round"/>
  <text x="126" y="852" font-family="-apple-system,BlinkMacSystemFont,'Noto Sans JP',sans-serif" font-size="13" font-weight="900" fill="#101828">なぜ私たちは現場AIをつくるのか</text>
  <text x="126" y="876" font-family="-apple-system,BlinkMacSystemFont,'Noto Sans JP',sans-serif" font-size="11" font-weight="700" fill="#667085">創業背景と、最初の顧客から学んだこと</text>

  <rect x="0" y="892" width="430" height="40" fill="white"/>
  <g font-family="-apple-system,BlinkMacSystemFont,'Noto Sans JP',sans-serif" font-size="10" font-weight="800" fill="#667085">
    <text x="28" y="916">フィード</text>
    <text x="111" y="916">検索</text>
    <text x="199" y="916">投稿</text>
    <text x="282" y="916">メッセージ</text>
    <text x="371" y="916" fill="#2563EB">マイページ</text>
  </g>

  <defs>
    <linearGradient id="avatar" x1="26" y1="148" x2="110" y2="232" gradientUnits="userSpaceOnUse">
      <stop stop-color="#DBEAFE"/>
      <stop offset="0.55" stop-color="#FFFFFF"/>
      <stop offset="1" stop-color="#D1FAE5"/>
    </linearGradient>
  </defs>
</svg>
